<?xml version="1.0" encoding="UTF-8" standalone="no"?>
<!-- Created with Inkscape (http://www.inkscape.org/) -->

<svg
   version="1.1"
   id="svg2"
   width="643.09625"
   height="689.50293"
   viewBox="0 0 643.09625 689.50293"
   xmlns="http://www.w3.org/2000/svg"
   xmlns:svg="http://www.w3.org/2000/svg">
  <defs
     id="defs6" />
  <g
     id="g8"
     transform="translate(981.64088,-447.64652)">
    <g
       id="g170"
       transform="translate(-989.64089,440.34937)">
      <path
         style="fill:#d6a5cc;stroke-width:0.8"
         d="m 496.86318,695.53335 c 0.0384,-0.93196 0.22795,-1.12152 0.48332,-0.48334 0.2311,0.5775 0.20268,1.2675 -0.0631,1.53334 -0.26583,0.26583 -0.45491,-0.20668 -0.42017,-1.05 z m 153.66315,-0.33334 c 0,-1.1 0.18159,-1.55 0.40351,-1 0.22193,0.55 0.22193,1.45 0,2 -0.22192,0.55 -0.40351,0.1 -0.40351,-1 z m -408.86316,-2.06666 c 0.0384,-0.93196 0.22795,-1.12152 0.48333,-0.48334 0.23109,0.5775 0.20268,1.2675 -0.0631,1.53334 -0.26584,0.26583 -0.45492,-0.20668 -0.42018,-1.05 z m 308.86316,-1.13334 c 0,-1.1 0.18158,-1.55 0.40351,-1 0.22193,0.55 0.22193,1.45 0,2 -0.22193,0.55 -0.40351,0.1 -0.40351,-1 z m -54.46315,-3.66666 c 0.0384,-0.93196 0.22795,-1.12152 0.48332,-0.48334 0.2311,0.5775 0.20268,1.2675 -0.0631,1.53334 -0.26583,0.26583 -0.45491,-0.20668 -0.42017,-1.05 z m 153.66315,-3.53334 c 0,-1.1 0.18159,-1.55 0.40351,-1 0.22193,0.55 0.22193,1.45 0,2 -0.22192,0.55 -0.40351,0.1 -0.40351,-1 z m -100,-2.4 c 0,-1.1 0.18158,-1.55 0.40351,-1 0.22193,0.55 0.22193,1.45 0,2 -0.22193,0.55 -0.40351,0.1 -0.40351,-1 z m -270.46316,-0.46666 c 0.0384,-0.93196 0.22795,-1.12152 0.48333,-0.48334 0.23109,0.5775 0.20268,1.2675 -0.0631,1.53334 -0.26584,0.26583 -0.45492,-0.20668 -0.42018,-1.05 z m -40,-0.8 c 0.0384,-0.93196 0.22795,-1.12152 0.48333,-0.48334 0.23109,0.5775 0.20268,1.2675 -0.0631,1.53334 -0.26584,0.26583 -0.45492,-0.20668 -0.42018,-1.05 z m 256.09281,-0.73334 c 0.0163,-1.32 0.1956,-1.76315 0.39843,-0.98478 0.20283,0.77838 0.18949,1.85838 -0.0297,2.4 -0.21915,0.54163 -0.3851,-0.0952 -0.36879,-1.41522 z m 153.62964,-5.2 c 0,-1.54 0.16464,-2.17 0.36586,-1.4 0.20122,0.77 0.20122,2.03 0,2.8 -0.20122,0.77 -0.36586,0.14 -0.36586,-1.4 z m -100.05929,0 c 0,-1.1 0.18158,-1.55 0.40351,-1 0.22193,0.55 0.22193,1.45 0,2 -0.22193,0.55 -0.40351,0.1 -0.40351,-1 z m -54.46315,-1.26666 c 0.0384,-0.93196 0.22795,-1.12152 0.48332,-0.48334 0.2311,0.5775 0.20268,1.2675 -0.0631,1.53334 -0.26583,0.26583 -0.45491,-0.20668 -0.42017,-1.05 z m 52.86315,-11.53334 c 0,-1.1 0.18158,-1.55 0.40351,-1 0.22193,0.55 0.22193,1.45 0,2 -0.22193,0.55 -0.40351,0.1 -0.40351,-1 z m -54.46316,-0.46666 c 0.0384,-0.93196 0.22796,-1.12152 0.48333,-0.48334 0.2311,0.5775 0.20268,1.2675 -0.0631,1.53334 -0.26583,0.26583 -0.45491,-0.20668 -0.42017,-1.05 z m 154.46316,-1.93334 c 0,-1.1 0.18159,-1.55 0.40351,-1 0.22193,0.55 0.22193,1.45 0,2 -0.22192,0.55 -0.40351,0.1 -0.40351,-1 z m -100.86315,-3.66666 c 0.0384,-0.93196 0.22795,-1.12152 0.48332,-0.48334 0.2311,0.5775 0.20268,1.2675 -0.0631,1.53334 -0.26583,0.26583 -0.45491,-0.20668 -0.42017,-1.05 z m 100,-2.4 c 0.0384,-0.93196 0.22795,-1.12152 0.48333,-0.48334 0.23109,0.5775 0.20268,1.2675 -0.0631,1.53334 -0.26583,0.26583 -0.45491,-0.20668 -0.42018,-1.05 z m -155.20001,-2.4 c 0.0384,-0.93196 0.22796,-1.12152 0.48333,-0.48334 0.2311,0.5775 0.20268,1.2675 -0.0631,1.53334 -0.26583,0.26583 -0.45491,-0.20668 -0.42017,-1.05 z m 54.40001,-0.8 c 0.0384,-0.93196 0.22795,-1.12152 0.48332,-0.48334 0.2311,0.5775 0.20268,1.2675 -0.0631,1.53334 -0.26583,0.26583 -0.45491,-0.20668 -0.42017,-1.05 z m 100,-3.2 c 0.0384,-0.93196 0.22795,-1.12152 0.48333,-0.48334 0.23109,0.5775 0.20268,1.2675 -0.0631,1.53334 -0.26583,0.26583 -0.45491,-0.20668 -0.42018,-1.05 z m -100.8,-1.6 c 0.0384,-0.93196 0.22795,-1.12152 0.48332,-0.48334 0.2311,0.5775 0.20268,1.2675 -0.0631,1.53334 -0.26583,0.26583 -0.45491,-0.20668 -0.42017,-1.05 z m 100,-4 c 0.0384,-0.93196 0.22795,-1.12152 0.48333,-0.48334 0.23109,0.5775 0.20268,1.2675 -0.0631,1.53334 -0.26583,0.26583 -0.45491,-0.20668 -0.42018,-1.05 z m -101.6,-5.6 c 0.0384,-0.93196 0.22795,-1.12152 0.48332,-0.48334 0.2311,0.5775 0.20268,1.2675 -0.0631,1.53334 -0.26583,0.26583 -0.45491,-0.20668 -0.42017,-1.05 z m 99.2,-9.60001 c 0.0384,-0.93196 0.22795,-1.12152 0.48333,-0.48333 0.23109,0.57749 0.20268,1.2675 -0.0631,1.53333 -0.26583,0.26584 -0.45491,-0.20667 -0.42018,-1.05 z m -157.60001,-7.2 c 0.0384,-0.93196 0.22796,-1.12152 0.48333,-0.48333 0.2311,0.57749 0.20268,1.2675 -0.0631,1.53333 -0.26583,0.26584 -0.45491,-0.20667 -0.42017,-1.05 z m 156.00001,-2.4 c 0.0384,-0.93196 0.22795,-1.12152 0.48333,-0.48333 0.23109,0.57749 0.20268,1.2675 -0.0631,1.53333 -0.26583,0.26584 -0.45491,-0.20667 -0.42018,-1.05 z m -101.6,-0.8 c 0.0384,-0.93196 0.22795,-1.12152 0.48332,-0.48333 0.2311,0.57749 0.20268,1.2675 -0.0631,1.53333 -0.26583,0.26584 -0.45491,-0.20667 -0.42017,-1.05 z m 97.6,-19.2 c 0.0384,-0.93196 0.22795,-1.12152 0.48333,-0.48333 0.23109,0.57749 0.20268,1.2675 -0.0631,1.53333 -0.26583,0.26584 -0.45491,-0.20667 -0.42018,-1.05 z m -8,-33.6 c 0.0384,-0.93196 0.22795,-1.12152 0.48333,-0.48333 0.23109,0.57749 0.20268,1.2675 -0.0631,1.53333 -0.26583,0.26584 -0.45491,-0.20667 -0.42018,-1.05 z M 339.38634,427.61367 c 31.70701,-31.89922 32.62447,-32.74227 34,-31.24258 1.35553,1.4779 1.35388,1.4961 -0.0401,0.44254 -1.32723,-1.00312 -4.28624,1.7159 -34,31.24258 l -32.54625,32.34132 z m 46.91162,-14.61366 c -0.99509,-1.26885 -0.9668,-1.29715 0.30205,-0.30205 1.3326,1.04509 1.75639,1.70205 1.09795,1.70205 -0.16612,0 -0.79612,-0.63 -1.4,-1.4 z m -6.4,-8 c -0.99509,-1.26885 -0.9668,-1.29715 0.30205,-0.30205 1.3326,1.04509 1.75639,1.70205 1.09795,1.70205 -0.16612,0 -0.79612,-0.63 -1.4,-1.4 z m -3.2,-4 c -0.99509,-1.26885 -0.9668,-1.29715 0.30205,-0.30205 1.3326,1.04509 1.75639,1.70205 1.09795,1.70205 -0.16612,0 -0.79612,-0.63 -1.4,-1.4 z m 47.2,-27.2 c -0.99509,-1.26885 -0.9668,-1.29715 0.30205,-0.30205 0.77,0.60388 1.4,1.23388 1.4,1.4 0,0.65843 -0.65695,0.23465 -1.70205,-1.09795 z m -3.2,-4 c -0.99509,-1.26885 -0.9668,-1.29715 0.30205,-0.30205 1.3326,1.04509 1.75639,1.70205 1.09795,1.70205 -0.16612,0 -0.79612,-0.63 -1.4,-1.4 z m -4,-4.8 c -0.99509,-1.26885 -0.9668,-1.29715 0.30205,-0.30205 0.77,0.60388 1.4,1.23388 1.4,1.4 0,0.65843 -0.65695,0.23465 -1.70205,-1.09795 z m -4.37396,-5.2 -1.52399,-1.8 1.8,1.52399 c 0.99,0.83819 1.8,1.64819 1.8,1.8 0,0.6402 -0.64383,0.16756 -2.07601,-1.52399 z M 445.20001,321.6 c 19.35625,-19.36 35.37319,-35.2 35.59319,-35.2 0.22,0 -15.43694,15.84 -34.79319,35.2 -19.35625,19.36 -35.37318,35.20001 -35.59318,35.20001 -0.22,0 15.43693,-15.84001 34.79318,-35.20001 z m 61.09796,-3.8 c -0.9951,-1.26884 -0.9668,-1.29714 0.30205,-0.30204 1.3326,1.04509 1.75638,1.70204 1.09795,1.70204 -0.16612,0 -0.79612,-0.63 -1.4,-1.4 z m -6.4,-8 c -0.9951,-1.26884 -0.9668,-1.29714 0.30205,-0.30204 0.77,0.60388 1.4,1.23388 1.4,1.4 0,0.65843 -0.65696,0.23464 -1.70205,-1.09796 z m -3.2,-4 c -0.9951,-1.26884 -0.9668,-1.29714 0.30205,-0.30204 1.3326,1.04509 1.75638,1.70204 1.09795,1.70204 -0.16612,0 -0.79612,-0.63 -1.4,-1.4 z m -4,-4.8 c -0.9951,-1.26884 -0.9668,-1.29714 0.30204,-0.30204 1.33261,1.04509 1.75639,1.70204 1.09796,1.70204 -0.16612,0 -0.79612,-0.63 -1.4,-1.4 z m -4,-4.8 c -0.9951,-1.26884 -0.9668,-1.29714 0.30204,-0.30204 1.3326,1.04509 1.75639,1.70204 1.09796,1.70204 -0.16612,0 -0.79612,-0.63 -1.4,-1.4 z m -4.75851,-5.6 -1.93945,-2.2 2.2,1.93945 c 1.21,1.06671 2.2,2.05671 2.2,2.2 0,0.62743 -0.64784,0.11679 -2.46055,-1.93945 z m -33.93945,-97 c 0.7964,-0.88 1.62799,-1.6 1.84799,-1.6 0.22,0 -0.25159,0.72 -1.04799,1.6 -0.79639,0.88 -1.62798,1.6 -1.84798,1.6 -0.22,0 0.25159,-0.72 1.04798,-1.6 z M 26.250001,8.2535089 c 0.5775,-0.2310968 1.2675,-0.2026752 1.533333,0.06316 0.265833,0.2658336 -0.206667,0.4549128 -1.05,0.420176 -0.931954,-0.038384 -1.12152,-0.2279528 -0.483333,-0.4833336 z"
         id="path184" />
      <path
         style="fill:#e98d9e;stroke-width:0.8"
         d="m 231.20001,535.69796 c 0,-0.16612 0.63,-0.79612 1.4,-1.4 1.26885,-0.9951 1.29714,-0.9668 0.30205,0.30205 -1.0451,1.3326 -1.70205,1.75638 -1.70205,1.09795 z m 4,-4 c 0,-0.16612 0.63,-0.79612 1.4,-1.4 1.26885,-0.9951 1.29714,-0.9668 0.30205,0.30205 -1.0451,1.3326 -1.70205,1.75638 -1.70205,1.09795 z m 4,-4 c 0,-0.16612 0.63,-0.79612 1.4,-1.4 1.26885,-0.9951 1.29714,-0.9668 0.30205,0.30205 -1.0451,1.3326 -1.70205,1.75638 -1.70205,1.09795 z m 12.4,-136.49795 c 31.67771,-31.68 57.77583,-57.60001 57.99583,-57.60001 0.22,0 -25.51812,25.92001 -57.19583,57.60001 -31.67772,31.68 -57.77584,57.6 -57.99584,57.6 -0.22,0 25.51812,-25.92 57.19584,-57.6 z M 15.05,7.4535089 c 0.5775,-0.2310965 1.2675,-0.2026754 1.533334,0.063158 0.265833,0.2658334 -0.206667,0.4549123 -1.05,0.4201755 C 14.60138,7.8984551 14.411814,7.7088899 15.05,7.4535089 Z"
         id="path182" />
      <path
         style="fill:#f17e88;stroke-width:0.8"
         d="m 52.000002,590.80001 c 20.896527,-20.9 38.173689,-38 38.393689,-38 0.22,0 -16.697162,17.1 -37.593689,38 -20.896527,20.9 -38.173686,38 -38.393686,38 -0.22,0 16.697159,-17.1 37.593686,-38 z M 188.40001,444.25914 C 181.39008,438.70441 160.58022,424.90606 150,418.79734 109.69486,395.52626 63.819399,379.62414 18.200001,373.11062 L 8.0000002,371.65427 V 290.15202 208.64976 L 15,209.1773 c 3.850001,0.29014 8.080001,0.67777 9.400001,0.86141 1.32,0.18364 4.56,0.53793 7.2,0.78732 2.64,0.2494 6.6,0.78339 8.8,1.18665 2.2,0.40327 5.454412,0.9315 7.232027,1.17385 1.777614,0.24235 3.995052,0.58759 4.927639,0.76719 0.932587,0.1796 3.438176,0.56784 5.567974,0.86276 2.129798,0.29492 5.852361,1.01664 8.272361,1.60383 2.42,0.58719 5.84,1.28058 7.6,1.54087 3.050621,0.45117 9.816137,2.00246 21.200001,4.86105 2.86,0.71817 6.639997,1.65133 8.399997,2.07368 4.19629,1.00699 15.36385,4.3302 22.4,6.66573 3.08,1.02235 8.12,2.64924 11.2,3.61533 3.08,0.96608 6.68,2.24221 8,2.83583 1.32,0.59363 4.02,1.60951 6,2.25751 1.98,0.64801 4.68,1.6171 6,2.15355 1.32,0.53645 3.12,1.26004 4,1.60798 44.61014,17.63808 88.08303,42.20408 127.20001,71.87915 4.4,3.33794 8.72,6.67842 9.6,7.42329 0.88,0.74485 3.94,3.26936 6.8,5.61 l 5.2,4.25572 -58,57.74832 -58,57.74832 z"
         id="path180" />
      <path
         style="fill:#e75b6b;stroke-width:0.8"
         d="m 119.6,523.20001 c 0.7964,-0.88 1.62799,-1.6 1.84799,-1.6 0.22,0 -0.25159,0.72 -1.04799,1.6 -0.79639,0.88 -1.62798,1.6 -1.84798,1.6 -0.22,0 0.25159,-0.72 1.04798,-1.6 z m 4,-4 c 0.7964,-0.88 1.62799,-1.6 1.84799,-1.6 0.22,0 -0.25159,0.72 -1.04799,1.6 -0.79639,0.88 -1.62798,1.6 -1.84798,1.6 -0.22,0 0.25159,-0.72 1.04798,-1.6 z m 36.4,-36.4 c 18.69613,-18.7 34.17295,-34 34.39295,-34 0.22,0 -14.89682,15.3 -33.59295,34 -18.69612,18.7 -34.17294,34 -34.39294,34 -0.22,0 14.89682,-15.3 33.59294,-34 z M 27.850001,374.65352 c 0.5775,-0.2311 1.2675,-0.20268 1.533333,0.0631 0.265833,0.26583 -0.206667,0.45491 -1.05,0.42017 -0.931954,-0.0384 -1.12152,-0.22795 -0.483333,-0.48332 z m -10.4,-1.6 c 0.5775,-0.2311 1.2675,-0.20268 1.533333,0.0631 0.265833,0.26583 -0.206667,0.45491 -1.05,0.42017 -0.931954,-0.0384 -1.12152,-0.22795 -0.483333,-0.48332 z m 83.999999,-148.8 c 0.5775,-0.2311 1.2675,-0.20268 1.53334,0.0631 0.26583,0.26583 -0.20667,0.45491 -1.05,0.42017 -0.93196,-0.0384 -1.12152,-0.22795 -0.48334,-0.48333 z m -15.999997,-4 c 0.577496,-0.2311 1.267496,-0.20268 1.533336,0.0631 0.265832,0.26583 -0.206672,0.45491 -1.05,0.42017 -0.93196,-0.0384 -1.12152,-0.22795 -0.483336,-0.48333 z m -42.450002,-7.98334 c 0.55,-0.22193 1.45,-0.22193 2,0 0.55,0.22193 0.1,0.40351 -1,0.40351 -1.1,0 -1.55,-0.18158 -1,-0.40351 z M 9.0152259,208.24561 c 0.7783736,-0.20283 1.8583741,-0.1895 2.4000001,0.0297 0.541626,0.21914 -0.09523,0.3851 -1.415226,0.36879 -1.3199997,-0.0163 -1.7631485,-0.1956 -0.9847741,-0.39843 z M 10.615226,7.4456075 c 0.778374,-0.2028347 1.858374,-0.1894952 2.4,0.029643 C 13.556852,7.6943892 12.92,7.8603449 11.6,7.8440412 10.28,7.8277374 9.8368515,7.6484423 10.615226,7.4456075 Z"
         id="path178" />
      <path
         style="fill:#aa4197;stroke-width:0.8"
         d="m 130.56169,636.3816 c 33.30893,-33.20987 60.89114,-60.38159 61.2938,-60.38159 0.40266,0 3.42005,4.05 6.70532,9 20.85565,31.42375 35.13419,66.03656 41.82973,101.4 0.70812,3.74 1.45679,7.61 1.66372,8.6 l 0.37623,1.8 -86.21525,-0.0184 -86.215238,-0.0184 60.561688,-60.3816 z m 151.47181,58.61841 c -0.21836,-0.99 -0.78337,-4.14 -1.2556,-7 -7.74124,-46.88379 -26.11834,-91.80347 -53.62321,-131.07271 -3.49508,-4.99 -6.35468,-9.34733 -6.35468,-9.68298 0,-0.68278 150.07859,-150.71127 151.12705,-151.07659 0.36665,-0.12776 4.23623,4.19224 8.59909,9.6 44.46517,55.11458 77.38778,118.04091 96.74307,184.90897 7.20206,24.88144 12.30691,47.96637 15.59504,70.52331 1.33816,9.17994 3.90288,31.03284 3.91992,33.4 l 0.0158,2.2 H 389.61525 282.43049 Z m 268.45514,-8.8 C 545.36862,629.17496 531.00389,570.52547 509.18315,517.55466 486.91016,463.486 455.51511,411.13998 418.95237,367.10987 l -8.37887,-10.09014 35.09496,-35.08816 c 21.97355,-21.96929 35.36748,-34.79717 35.82386,-34.30986 3.58549,3.8285 24.37306,29.42125 30.84766,37.97829 75.12819,99.29206 122.18312,216.64279 135.20939,337.20001 2.56215,23.71254 2.85065,26.78265 2.85065,30.33635 v 3.66365 h -49.47983 -49.47983 z"
         id="path176" />
      <path
         style="fill:#e03146;stroke-width:0.8"
         d="m 8.1975962,503.40001 -0.197596,-131.4 L 10.2,372.10895 c 1.882702,0.0932 1.940736,0.1589 0.402385,0.45533 L 8.8047699,372.91066 8.5999811,503.85534 8.3951915,634.80001 Z M 35.050001,376.25352 c 0.5775,-0.2311 1.2675,-0.20268 1.533334,0.0631 0.265833,0.26583 -0.206667,0.45491 -1.05,0.42017 -0.931955,-0.0384 -1.12152,-0.22795 -0.483334,-0.48332 z M 380.74404,262.25484 c 64.7042,-64.88917 70.64905,-71.06935 69.64325,-72.4 -1.05457,-1.39521 -1.03646,-1.39688 0.44197,-0.0408 1.49959,1.37546 -0.39878,3.34899 -69.64325,72.4 L 310.00114,333.2 Z M 79.050002,218.65352 c 0.5775,-0.2311 1.267496,-0.20268 1.533336,0.0631 0.265832,0.26583 -0.206672,0.45491 -1.050002,0.42017 -0.931954,-0.0384 -1.12152,-0.22795 -0.483334,-0.48333 z m -20,-4 c 0.5775,-0.2311 1.2675,-0.20268 1.533333,0.0631 0.265833,0.26583 -0.206667,0.45491 -1.05,0.42017 -0.931954,-0.0384 -1.12152,-0.22795 -0.483333,-0.48333 z m -9.6,-1.6 c 0.5775,-0.2311 1.2675,-0.20268 1.533333,0.0631 0.265833,0.26583 -0.206667,0.45491 -1.05,0.42017 -0.931954,-0.0384 -1.12152,-0.22795 -0.483333,-0.48333 z m -16.434775,-2.40791 c 0.778373,-0.20283 1.858373,-0.1895 2.4,0.0297 0.541625,0.21914 -0.09523,0.3851 -1.415226,0.36879 -1.32,-0.0163 -1.763149,-0.1956 -0.984774,-0.39843 z m -14.015226,-1.57543 c 0.55,-0.22193 1.45,-0.22193 2,0 0.55,0.22193 0.1,0.40351 -1,0.40351 -1.1,0 -1.55,-0.18158 -1,-0.40351 z M 8.1916418,108.24722 C 8.0862386,53.163182 8.2700003,7.9275085 8.6000003,7.7234966 9.1427995,7.3879283 9.1389379,77.38163 8.5909155,172.4 8.4767179,192.2 8.2970451,163.33125 8.1916418,108.24722 Z M 65.450002,13.053509 c 0.5775,-0.231097 1.2675,-0.202675 1.533334,0.06316 0.265832,0.265834 -0.206668,0.454913 -1.05,0.420176 -0.931955,-0.03838 -1.12152,-0.227953 -0.483334,-0.483334 z M 30.200001,9.0701753 c 0.55,-0.2219296 1.45,-0.2219296 2,0 0.55,0.2219304 0.1,0.4035088 -1,0.4035088 -1.1,0 -1.55,-0.1815784 -1,-0.4035088 z"
         id="path174" />
      <path
         style="fill:#dd1c33;stroke-width:0.8"
         d="M 8.8000003,503.39871 V 372.80001 L 11.4,372.80241 c 4.425663,0.004 25.373587,3.71995 39.000002,6.91756 15.680014,3.6795 42.849097,12.33581 52.520908,16.73362 1.38649,0.63045 2.74041,1.14626 3.00872,1.14626 2.2644,0 37.84295,17.94164 49.49561,24.95976 11.49977,6.92604 30.73244,20.05348 35.48573,24.2211 l 2.7591,2.4193 -92.43503,92.3987 -92.4350397,92.3987 z M 307.99579,330.99544 c -1.09768,-0.99655 -3.61578,-3.05889 -5.59578,-4.583 -1.98,-1.5241 -3.78,-2.98428 -4,-3.24485 -1.01633,-1.20374 -18.27752,-14.07515 -28,-20.87919 -25.14067,-17.59407 -56.51696,-35.61552 -82,-47.09792 -2.2,-0.99131 -6.25902,-2.83469 -9.02004,-4.09642 -2.76102,-1.26173 -5.21076,-2.29406 -5.44389,-2.29406 -0.23312,0 -1.93411,-0.68597 -3.77996,-1.52439 C 168.31025,246.4372 161.94,243.87844 156,241.58948 122.43824,228.65656 81.838906,217.79701 48.400001,212.80852 c -3.08,-0.45948 -7.94,-1.19643 -10.8,-1.63767 -5.232267,-0.80723 -25.936939,-3.16807 -27.8000007,-3.16988 -0.7946616,-7.7e-4 -1,-20.53482 -1,-100.00097 V 8.0000001 L 12.6,8.0047201 c 3.701796,0.00456 34.607548,2.7555369 40.200002,3.5782349 1.54,0.226548 6.94,0.966856 12,1.645129 45.080598,6.042883 102.813618,19.747451 139.600008,33.138014 40.03877,14.57446 57.88537,22.125456 88.79197,37.568382 37.91875,18.94664 69.72331,38.37467 106.00803,64.75572 16.27285,11.83129 40.45802,31.23292 49.2,39.46884 l 3.2,3.01476 -70.80422,70.81677 -70.80423,70.81676 z"
         id="path172" />
    </g>
  </g>
</svg>
