<?xml version="1.0" encoding="UTF-8" standalone="no"?>
<!-- Created with Inkscape (http://www.inkscape.org/) -->

<svg
   version="1.1"
   id="svg2"
   width="966.00006"
   height="967"
   viewBox="0 0 966.00006 967"
   xmlns="http://www.w3.org/2000/svg"
   xmlns:svg="http://www.w3.org/2000/svg">
  <defs
     id="defs6" />
  <g
     id="g8"
     transform="translate(-555.18329,-52.810131)">
    <g
       id="g170"
       transform="translate(549.25918,18.476608)">
      <path
         style="fill:#fcfaf9"
         d="m 739.90911,796.58352 -12.48499,-12.75 12.75,12.48499 c 11.84344,11.59728 13.20343,13.01501 12.48499,13.01501 -0.14575,0 -5.88325,-5.7375 -12.75,-12.75 z m -367.99513,-368 -18.48986,-18.75 18.75,18.48986 c 10.3125,10.16943 18.75,18.60693 18.75,18.75 0,0.71185 -1.83118,-1.0692 -19.01014,-18.48986 z m -86.49361,-86.5 -49.99625,-50.25 50.25,49.99625 c 46.70792,46.47205 50.6991,50.50375 49.99625,50.50375 -0.13956,0 -22.75206,-22.6125 -50.25,-50.25 z m -98.0044,-98 -22.99185,-23.25 23.25,22.99185 c 12.7875,12.64551 23.25,23.10801 23.25,23.25 0,0.7091 -2.14386,-1.38768 -23.50815,-22.99185 z"
         id="path310" />
      <path
         style="fill:#fdfcf5"
         d="m 478.39805,201.33352 c 0,-39.325 0.12405,-55.4125 0.27566,-35.75 0.15162,19.6625 0.15162,51.8375 0,71.5 -0.15161,19.6625 -0.27566,3.575 -0.27566,-35.75 z"
         id="path308" />
      <path
         style="fill:#f9fafa"
         d="m 596.74623,541.58394 c 17.22716,-0.15351 45.12716,-0.15341 62,2.3e-4 16.87284,0.15363 2.77789,0.27924 -31.32211,0.27912 -34.1,-1.3e-4 -47.90505,-0.12583 -30.67789,-0.27935 z m 126.47699,0.004 c 4.83951,-0.18371 12.48951,-0.18277 17,0.002 4.5105,0.18485 0.5509,0.33516 -8.7991,0.33401 -9.35,-10e-4 -13.0404,-0.1524 -8.2009,-0.3361 z"
         id="path306" />
      <path
         style="fill:#fcf9f6"
         d="m 408.91398,465.58352 -18.48986,-18.75 18.75,18.48986 c 10.3125,10.16943 18.75,18.60693 18.75,18.75 0,0.71185 -1.83118,-1.0692 -19.01014,-18.48986 z m 69.48015,-72.25 c 0,-33.825 0.12575,-47.6625 0.27945,-30.75 0.15369,16.9125 0.15369,44.5875 0,61.5 -0.1537,16.9125 -0.27945,3.075 -0.27945,-30.75 z m -0.0608,-104.5 c -10e-4,-9.35 0.14916,-13.3096 0.33401,-8.7991 0.18486,4.51049 0.1858,12.16049 0.002,17 -0.1837,4.8395 -0.33495,1.1491 -0.3361,-8.2009 z"
         id="path304" />
      <path
         style="fill:#f5f9fa"
         d="m 774.67412,541.5842 c 14.9875,-0.15555 39.5125,-0.15555 54.5,0 14.9875,0.15556 2.725,0.28283 -27.25,0.28283 -29.975,0 -42.2375,-0.12727 -27.25,-0.28283 z"
         id="path302" />
      <path
         style="fill:#f9f8f6"
         d="m 5.9241228,999.83352 c 0,-1.3313 54.3333332,-1.5 482.9999972,-1.5 428.66667,0 483,0.1687 483,1.5 0,1.33128 -54.33333,1.49998 -483,1.49998 -428.666664,0 -482.9999972,-0.1687 -482.9999972,-1.49998 z"
         id="path300" />
      <path
         style="fill:#f5f9f6"
         d="m 478.37099,930.33352 c 0,-17.875 0.1356,-25.1875 0.30134,-16.25 0.16573,8.9375 0.16573,23.5625 0,32.5 -0.16574,8.9375 -0.30134,1.625 -0.30134,-16.25 z m 331.03608,-64.25 -10.98295,-11.25 11.25,10.98295 c 6.1875,6.04062 11.25,11.10312 11.25,11.25 0,0.72114 -1.31566,-0.53351 -11.51705,-10.98295 z m -331.00937,-74.75 c 0,-38.775 0.1242,-54.6375 0.276,-35.25 0.1518,19.3875 0.1518,51.1125 0,70.5 -0.1518,19.3875 -0.276,3.525 -0.276,-35.25 z m 115.02319,-141.25 -57.99677,-58.25 58.25,57.99677 c 32.0375,31.89822 58.25,58.11072 58.25,58.25 0,0.7021 -4.59229,-3.85044 -58.50323,-57.99677 z m -115.02919,-10.75 c 0,-31.075 0.1268,-43.7875 0.28178,-28.25 0.15498,15.5375 0.15498,40.9625 0,56.5 -0.15498,15.5375 -0.28178,2.825 -0.28178,-28.25 z"
         id="path298" />
      <path
         style="fill:#f4f6f8"
         d="m 864.17412,541.58895 c 4.8125,-0.18331 12.6875,-0.18331 17.5,0 4.8125,0.18332 0.875,0.3333 -8.75,0.3333 -9.625,0 -13.5625,-0.14998 -8.75,-0.3333 z"
         id="path296" />
      <path
         style="fill:#f3f4f5"
         d="m 34.174123,541.59021 c 4.2625,-0.18745 11.2375,-0.18745 15.5,0 4.2625,0.18745 0.775,0.34082 -7.75,0.34082 -8.525,0 -12.0125,-0.15337 -7.75,-0.34082 z m 159.573307,-0.006 c 19.42782,-0.15185 50.92782,-0.15177 70,1.7e-4 19.07218,0.15195 3.17669,0.27618 -35.32331,0.27609 -38.5,-10e-5 -54.10451,-0.12442 -34.67669,-0.27626 z m 158.92669,3e-4 c 15.5375,-0.15498 40.9625,-0.15498 56.5,0 15.5375,0.15498 2.825,0.28178 -28.25,0.28178 -31.075,0 -43.7875,-0.1268 -28.25,-0.28178 z"
         id="path294" />
      <path
         style="fill:#f4eaf3"
         d="m 828.92412,231.05849 c 0,-0.15126 3.4875,-3.63876 7.75,-7.75 l 7.75,-7.47497 -7.47497,7.75 c -6.94259,7.19803 -8.02503,8.20627 -8.02503,7.47497 z"
         id="path292" />
      <path
         style="fill:#f2e5f0"
         d="m 644.92412,414.83352 c 5.20327,-5.225 9.6855,-9.5 9.9605,-9.5 0.275,0 -3.75723,4.275 -8.9605,9.5 -5.20327,5.225 -9.6855,9.5 -9.9605,9.5 -0.275,0 3.75723,-4.275 8.9605,-9.5 z m 78,-78 c 27.22083,-27.225 49.71742,-49.5 49.99242,-49.5 0.275,0 -21.77159,22.275 -48.99242,49.5 -27.22083,27.225 -49.71742,49.5 -49.99242,49.5 -0.275,0 21.77159,-22.275 48.99242,-49.5 z m 90,-90 c 8.51169,-8.525 15.7008,-15.5 15.9758,-15.5 0.275,0 -6.46411,6.975 -14.9758,15.5 -8.51169,8.525 -15.7008,15.5 -15.9758,15.5 -0.275,0 6.46411,-6.975 14.9758,-15.5 z"
         id="path290" />
      <path
         style="fill:#f8e6e8"
         d="m 694.42412,285.33352 c 20.89457,-20.9 38.21513,-38 38.49013,-38 0.275,0 -16.59556,17.1 -37.49013,38 -20.89457,20.9 -38.21513,38 -38.49013,38 -0.275,0 16.59556,-17.1 37.49013,-38 z"
         id="path288" />
      <path
         style="fill:#f0e3ee"
         d="m 605.42412,454.33352 c 16.49312,-16.5 30.2125,-30 30.4875,-30 0.275,0 -12.99438,13.5 -29.4875,30 -16.49312,16.5 -30.2125,30 -30.4875,30 -0.275,0 12.99438,-13.5 29.4875,-30 z"
         id="path286" />
      <path
         style="fill:#e2e5e8"
         d="m 157.42412,822.33352 c 6.03124,-6.05 11.19089,-11 11.46589,-11 0.275,0 -4.43465,4.95 -10.46589,11 -6.03124,6.05 -11.19089,11 -11.46589,11 -0.275,0 4.43465,-4.95 10.46589,-11 z"
         id="path284" />
      <path
         style="fill:#f5d9dc"
         d="m 595.92412,383.83352 c 33.27159,-33.275 60.7188,-60.5 60.9938,-60.5 0.275,0 -26.72221,27.225 -59.9938,60.5 -33.27159,33.275 -60.7188,60.5 -60.9938,60.5 -0.275,0 26.72221,-27.225 59.9938,-60.5 z m 140.5,-140.5 c 2.14824,-2.2 4.1309,-4 4.4059,-4 0.275,0 -1.25766,1.8 -3.4059,4 -2.14824,2.2 -4.1309,4 -4.4059,4 -0.275,0 1.25766,-1.8 3.4059,-4 z"
         id="path282" />
      <path
         style="fill:#dcf0dd"
         d="m 326.92412,732.83352 c 15.66776,-15.675 28.71184,-28.5 28.98684,-28.5 0.275,0 -12.31908,12.825 -27.98684,28.5 -15.66776,15.675 -28.71184,28.5 -28.98684,28.5 -0.275,0 12.31908,-12.825 27.98684,-28.5 z"
         id="path280" />
      <path
         style="fill:#dee1e5"
         d="m 289.42412,690.33352 c 27.49587,-27.5 50.2175,-50 50.4925,-50 0.275,0 -21.99663,22.5 -49.4925,50 -27.49587,27.5 -50.2175,50 -50.4925,50 -0.275,0 21.99663,-22.5 49.4925,-50 z m 80,-80 c 6.58281,-6.6 12.19374,-12 12.46874,-12 0.275,0 -4.88593,5.4 -11.46874,12 -6.58281,6.6 -12.19374,12 -12.46874,12 -0.275,0 4.88593,-5.4 11.46874,-12 z"
         id="path278" />
      <path
         style="fill:#daeedb"
         d="m 279.92412,780.73044 c 0,-0.51503 4.3875,-5.20253 9.75,-10.41667 l 9.75,-9.48025 -9.5,9.96866 c -5.225,5.48277 -9.6125,10.17027 -9.75,10.41667 -0.1375,0.2464 -0.25,0.0266 -0.25,-0.48841 z"
         id="path276" />
      <path
         style="fill:#d0eae7"
         d="m 680.90781,657.58352 -11.48369,-11.75 11.75,11.48369 c 10.91409,10.66672 12.20386,12.01631 11.48369,12.01631 -0.14647,0 -5.43397,-5.2875 -11.75,-11.75 z m -72.9881,-73 -42.49559,-42.75 42.75,42.49559 c 23.5125,23.37257 42.75,42.61007 42.75,42.75 0,0.7038 -3.50642,-2.76113 -43.00441,-42.49559 z"
         id="path274" />
      <path
         style="fill:#f4d2d5"
         d="m 782.92412,196.83352 c 23.37015,-23.375 42.71618,-42.5 42.99118,-42.5 0.275,0 -18.62103,19.125 -41.99118,42.5 -23.37015,23.375 -42.71618,42.5 -42.99118,42.5 -0.275,0 18.62103,-19.125 41.99118,-42.5 z"
         id="path272" />
      <path
         style="fill:#dbdde2"
         d="m 409.42412,570.33352 c 15.39263,-15.4 28.21161,-28 28.48661,-28 0.275,0 -12.09398,12.6 -27.48661,28 -15.39263,15.4 -28.21161,28 -28.48661,28 -0.275,0 12.09398,-12.6 27.48661,-28 z"
         id="path270" />
      <path
         style="fill:#d6e1de"
         d="m 367.42412,692.33352 c 6.58281,-6.6 12.19374,-12 12.46874,-12 0.275,0 -4.88593,5.4 -11.46874,12 -6.58281,6.6 -12.19374,12 -12.46874,12 -0.275,0 4.88593,-5.4 11.46874,-12 z m 70,-70 c 21.99484,-22 40.21562,-40 40.49062,-40 0.275,0 -17.49578,18 -39.49062,40 -21.99484,22 -40.21562,40 -40.49062,40 -0.275,0 17.49578,-18 39.49062,-40 z"
         id="path268" />
      <path
         style="fill:#f9f0a2"
         d="m 312.41919,289.08352 -37.99507,-38.25 38.25,37.99507 c 35.55043,35.31349 38.69962,38.50493 37.99507,38.50493 -0.14022,0 -17.35272,-17.2125 -38.25,-38.25 z"
         id="path266" />
      <path
         style="fill:#f9f09e"
         d="m 262.42412,239.33352 c -6.58281,-6.6 -11.74374,-12 -11.46874,-12 0.275,0 5.88593,5.4 12.46874,12 6.58281,6.6 11.74374,12 11.46874,12 -0.275,0 -5.88593,-5.4 -12.46874,-12 z"
         id="path264" />
      <path
         style="fill:#d2d9da"
         d="m 231.42412,828.33352 c 12.64103,-12.65 23.20869,-23 23.48369,-23 0.275,0 -9.84266,10.35 -22.48369,23 -12.64103,12.65 -23.20869,23 -23.48369,23 -0.275,0 9.84266,-10.35 22.48369,-23 z"
         id="path262" />
      <path
         style="fill:#f5d6b1"
         d="m 434.91971,411.58352 -42.49559,-42.75 42.75,42.49559 c 23.5125,23.37257 42.75,42.61007 42.75,42.75 0,0.7038 -3.50642,-2.76113 -43.00441,-42.49559 z"
         id="path260" />
      <path
         style="fill:#b6dae6"
         d="m 730.41919,707.08352 -37.99507,-38.25 38.25,37.99507 c 21.0375,20.89728 38.25,38.10978 38.25,38.25 0,0.70455 -3.19144,-2.44464 -38.50493,-37.99507 z"
         id="path258" />
      <path
         style="fill:#f4d3ac"
         d="m 361.90781,338.58352 -11.48369,-11.75 11.75,11.48369 c 6.4625,6.31603 11.75,11.60353 11.75,11.75 0,0.72017 -1.34959,-0.5696 -12.01631,-11.48369 z"
         id="path256" />
      <path
         style="fill:#b5cddd"
         d="m 780.90911,757.58352 -12.48499,-12.75 12.75,12.48499 c 7.0125,6.86675 12.75,12.60425 12.75,12.75 0,0.71844 -1.41773,-0.64155 -13.01501,-12.48499 z"
         id="path254" />
      <path
         style="fill:#d1e3a7"
         d="m 535.3373,879.83352 c 10e-4,-9.9 0.1507,-13.81474 0.33256,-8.69942 0.18186,5.11532 0.181,13.21532 -0.002,18 -0.18291,4.78468 -0.3317,0.59942 -0.33065,-9.30058 z"
         id="path252" />
      <path
         style="fill:#cde1a1"
         d="m 739.42412,797.33352 c -6.58281,-6.6 -11.74374,-12 -11.46874,-12 0.275,0 5.88593,5.4 12.46874,12 6.58281,6.6 11.74374,12 11.46874,12 -0.275,0 -5.88593,-5.4 -12.46874,-12 z"
         id="path250" />
      <path
         style="fill:#eea0a6"
         d="m 535.39033,218.83352 c 1.5e-4,-29.7 0.12761,-41.70574 0.28324,-26.67942 0.15562,15.02632 0.15549,39.32632 -2.9e-4,54 -0.15578,14.67368 -0.28311,2.37942 -0.28295,-27.32058 z"
         id="path248" />
      <path
         style="fill:#c2db8a"
         d="m 535.92412,879.97455 v -17.38261 l 7.25,-0.66217 c 13.62931,-1.24481 38.21208,-5.83122 54.38013,-10.14571 43.74999,-11.67479 87.18419,-33.05442 121.95734,-60.03109 l 8.08746,-6.27418 12.20966,12.23904 12.20965,12.23904 -8.78811,6.88471 c -53.92074,42.24216 -124.31683,71.32657 -189.80613,78.41912 -5.5,0.59565 -11.6875,1.31103 -13.75,1.58973 l -3.75,0.50673 z"
         id="path246" />
      <path
         style="fill:#ea9299"
         d="m 539.73662,165.65041 c 0.72187,-0.28887 1.58438,-0.25335 1.91667,0.0789 0.33229,0.33229 -0.25834,0.56864 -1.3125,0.52522 -1.16495,-0.048 -1.4019,-0.28494 -0.60417,-0.60416 z"
         id="path244" />
      <path
         style="fill:#d8ca6a"
         d="m 389.91898,447.58352 -36.49486,-36.75 36.75,36.49486 c 34.15576,33.91864 37.1997,37.00514 36.49486,37.00514 -0.14032,0 -16.67782,-16.5375 -36.75,-36.75 z m -67.01117,-67 -11.48369,-11.75 11.75,11.48369 c 6.4625,6.31603 11.75,11.60353 11.75,11.75 0,0.72017 -1.34959,-0.5696 -12.01631,-11.48369 z"
         id="path242" />
      <path
         style="fill:#ea8b92"
         d="m 693.92412,284.83352 c 20.6195,-20.625 37.715,-37.5 37.99,-37.5 0.275,0 -16.3705,16.875 -36.99,37.5 -20.6195,20.625 -37.715,37.5 -37.99,37.5 -0.275,0 16.3705,-16.875 36.99,-37.5 z"
         id="path240" />
      <path
         style="fill:#d5c660"
         d="m 273.67412,484.58953 c 4.5375,-0.18529 11.9625,-0.18529 16.5,0 4.5375,0.1853 0.825,0.3369 -8.25,0.3369 -9.075,0 -12.7875,-0.1516 -8.25,-0.3369 z m 76.5,-0.005 c 14.1625,-0.15649 37.3375,-0.15649 51.5,0 14.1625,0.15649 2.575,0.28452 -25.75,0.28452 -28.325,0 -39.9125,-0.12803 -25.75,-0.28452 z"
         id="path238" />
      <path
         style="fill:#e9828a"
         d="m 655.4819,321.42702 c -1.30318,-2.1086 -27.33554,-18.79397 -37.23583,-23.86621 -22.59905,-11.57823 -47.27849,-19.76947 -71.57786,-23.75708 l -10.74409,-1.76314 v -53.18046 -53.18046 l 4.25,0.34458 c 10.94049,0.88701 19.58063,2.21254 35.75,5.48459 5.775,1.16864 11.18291,2.19107 12.01758,2.27208 0.83467,0.081 2.10211,0.50854 2.81653,0.95008 0.71442,0.44153 1.56511,0.53663 1.89041,0.21133 0.3253,-0.3253 1.20624,-0.0812 1.95764,0.54237 0.75139,0.6236 1.65139,0.8486 2,0.5 0.3486,-0.34861 1.13644,-0.21669 1.75075,0.29314 0.61432,0.50984 2.32621,1.08892 3.8042,1.28685 1.478,0.19793 3.00428,0.67689 3.39174,1.06435 0.38747,0.38746 1.3117,0.70448 2.05384,0.70448 0.74215,0 7.07965,2.07935 14.08334,4.62077 7.00368,2.54143 13.18397,4.72482 13.73397,4.85198 0.55,0.12716 3.25,1.27091 6,2.54166 2.75,1.27076 5.5625,2.31237 6.25,2.31469 0.6875,0.002 1.25,0.40579 1.25,0.89658 0,0.4908 0.41157,0.63799 0.91459,0.32711 0.50302,-0.31089 1.06552,-0.22495 1.25,0.19098 0.18448,0.41593 3.48541,2.25709 7.33541,4.09147 3.85,1.83438 10.7026,5.34005 15.22799,7.79037 4.5254,2.45033 8.52509,4.39853 8.8882,4.32935 0.36311,-0.0692 0.93551,0.28886 1.27201,0.79565 0.9009,1.35684 12.1118,8.3414 12.1118,7.54584 0,-0.37329 0.5625,0.009 1.25,0.84862 1.24617,1.52265 17.25711,12.85493 18.16223,12.85493 0.26206,0 2.18901,1.57285 4.28212,3.49522 2.09311,1.92237 4.08659,3.49737 4.42996,3.5 0.34337,0.003 2.24035,1.48502 4.21551,3.29419 l 3.5912,3.28942 -37.83541,37.82559 c -23.17234,23.16632 -38.10764,37.38514 -38.53783,36.68908 z"
         id="path236" />
      <path
         style="fill:#f4d829"
         d="m 300.58426,276.49368 -49.83236,-49.83983 6.33611,-5.4876 c 49.30391,-42.70129 113.23993,-73.29679 178.24703,-85.29711 12.52525,-2.31216 36.1102,-5.53562 40.50224,-5.53562 h 2.08684 v 71 71 h -2.91923 c -4.65218,0 -26.63693,4.63674 -37.95326,8.00461 -26.90465,8.00715 -53.20692,21.20726 -76.32809,38.30617 -4.2194,3.1204 -7.95195,6.12699 -8.29455,6.68133 -0.3426,0.55434 -0.93553,1.00789 -1.31764,1.00789 -0.3821,0 -23.11929,-22.42793 -50.52709,-49.83984 z"
         id="path234" />
      <path
         style="fill:#75c4b8"
         d="m 680.90781,656.58352 -11.48369,-11.75 11.75,11.48369 c 10.91409,10.66672 12.20386,12.01631 11.48369,12.01631 -0.14647,0 -5.43397,-5.2875 -11.75,-11.75 z m -72.48815,-72.5 -41.99554,-42.25 42.25,41.99554 c 23.2375,23.09754 42.25,42.11004 42.25,42.25 0,0.70387 -3.47141,-2.72597 -42.50446,-41.99554 z"
         id="path232" />
      <path
         style="fill:#73c4b7"
         d="m 682.00386,656.91349 -11.38763,-11.42003 5.05522,-6.82997 c 17.82707,-24.08571 30.77469,-53.20994 36.7292,-82.61826 1.38791,-6.85465 2.52347,-12.74396 2.52347,-13.08735 0,-0.3434 7.34706,-0.62436 16.32681,-0.62436 h 16.3268 l -0.39661,3.25 c -0.82781,6.78347 -4.51992,24.58666 -6.80644,32.82039 -7.99557,28.79191 -21.67713,56.60255 -39.69069,80.67961 -3.80628,5.0875 -7.0042,9.25 -7.1065,9.25 -0.1023,0 -5.31043,-5.13901 -11.57363,-11.42003 z m -72.59536,-72.5956 -41.97545,-41.98437 h 60.24553 c 39.91779,0 60.24554,0.34099 60.24554,1.01059 0,2.6333 -4.26333,19.68122 -7.02489,28.09065 -5.23413,15.93887 -21.0237,45.80011 -28.3593,53.63313 -0.89711,0.95795 -10.55613,-8.16777 -43.13143,-40.75 z"
         id="path230" />
      <path
         style="fill:#bab374"
         d="m 272.91912,330.58352 -37.495,-37.75 37.75,37.495 c 20.7625,20.62225 37.75,37.60975 37.75,37.75 0,0.70464 -3.15646,-2.40946 -38.005,-37.495 z m -86.00333,-86 -22.49167,-22.75 22.75,22.49167 c 21.13932,20.89928 23.20102,23.00833 22.49167,23.00833 -0.14209,0 -10.37959,-10.2375 -22.75,-22.75 z"
         id="path228" />
      <path
         style="fill:#b86cac"
         d="m 604.74512,484.58404 c 15.57655,-0.15505 40.77655,-0.15493 56,2.6e-4 15.22345,0.1552 2.479,0.28205 -28.321,0.28191 -30.8,-1.5e-4 -43.25555,-0.12713 -27.679,-0.28217 z m 144.929,-1e-4 c 19.3875,-0.1518 51.1125,-0.1518 70.5,0 19.3875,0.1518 3.525,0.276 -35.25,0.276 -38.775,0 -54.6375,-0.1242 -35.25,-0.276 z m 157,0.001 c 8.9375,-0.16573 23.5625,-0.16573 32.5,0 8.9375,0.16574 1.625,0.30134 -16.25,0.30134 -17.875,0 -25.1875,-0.1356 -16.25,-0.30134 z"
         id="path226" />
      <path
         style="fill:#b3ac64"
         d="m 73.674123,484.58531 c 8.9375,-0.16573 23.5625,-0.16573 32.499997,0 8.9375,0.16574 1.625,0.30134 -16.249997,0.30134 -17.875,0 -25.1875,-0.1356 -16.25,-0.30134 z m 111.499997,-10e-4 c 14.7125,-0.15586 38.7875,-0.15586 53.5,0 14.7125,0.15585 2.675,0.28337 -26.75,0.28337 -29.425,0 -41.4625,-0.12752 -26.75,-0.28337 z"
         id="path224" />
      <path
         style="fill:#cab635"
         d="m 265.92412,481.91429 c 0,-3.85134 4.66848,-26.23678 7.52464,-36.08077 6.27191,-21.61667 17.88149,-46.52835 30.92338,-66.35497 l 6.81146,-10.35496 11.76409,11.73344 11.76409,11.73343 -5.41063,8.30064 c -14.04796,21.55147 -27.48186,56.46613 -30.01325,78.00435 l -0.63914,5.43807 h -16.36232 -16.36232 z m 59.34692,0.66923 c 0.26493,-0.9625 1.2504,-5.34742 2.18994,-9.74426 2.71574,-12.70912 9.09589,-29.97941 16.07228,-43.50574 3.54588,-6.875 7.31967,-13.625 8.38619,-15 l 1.93913,-2.5 36.28105,36.25 36.28104,36.25 h -50.81566 c -47.91271,0 -50.78815,-0.1 -50.33397,-1.75 z"
         id="path222" />
      <path
         style="fill:#b05ba3"
         d="m 757.42412,303.33352 c 8.23625,-8.25 15.19999,-15 15.47499,-15 0.275,0 -6.23874,6.75 -14.47499,15 -8.23625,8.25 -15.19999,15 -15.47499,15 -0.275,0 6.23874,-6.75 14.47499,-15 z m 63.5,-63.5 c 12.36583,-12.375 22.70833,-22.5 22.98333,-22.5 0.275,0 -9.6175,10.125 -21.98333,22.5 -12.36583,12.375 -22.70833,22.5 -22.98333,22.5 -0.275,0 9.6175,-10.125 21.98333,-22.5 z"
         id="path220" />
      <path
         style="fill:#73c075"
         d="m 535.32661,978.33352 c 0,-8.525 0.15337,-12.0125 0.34082,-7.75 0.18745,4.2625 0.18745,11.2375 0,15.5 -0.18745,4.2625 -0.34082,0.775 -0.34082,-7.75 z m -0.15852,-304.25 c -0.13419,-44.4125 0.095,-80.75 0.50929,-80.75 0.41429,0 26.62679,25.9875 58.25,57.75 l 57.49674,57.75 -57.744,-57.49074 -57.74399,-57.49073 -0.26204,80.49073 -0.26204,80.49074 z"
         id="path218" />
      <path
         style="fill:#e98e30"
         d="m 445.41826,421.08352 -31.99414,-32.25 32.25,31.99414 c 29.9718,29.73402 32.70001,32.50586 31.99414,32.50586 -0.14072,0 -14.65322,-14.5125 -32.25,-32.25 z"
         id="path216" />
      <path
         style="fill:#ae58a1"
         d="m 576.92412,484.07871 c 0,-0.14014 17.6625,-17.80264 39.25,-39.25 l 39.25,-38.99519 -38.99519,39.25 c -36.24339,36.48021 -39.50481,39.69956 -39.50481,38.99519 z m 131.5,-131.74519 c 18.69393,-18.7 34.21397,-34 34.48897,-34 0.275,0 -14.79504,15.3 -33.48897,34 -18.69393,18.7 -34.21397,34 -34.48897,34 -0.275,0 14.79504,-15.3 33.48897,-34 z"
         id="path214" />
      <path
         style="fill:#e98d2e"
         d="m 435.4959,410.64874 c -35.79595,-35.3342 -41.71933,-41.58478 -40.5,-42.73719 7.81002,-7.38136 37.43647,-23.1199 53.42822,-28.38282 10.11354,-3.32838 28.32097,-7.70757 29.04318,-6.98536 0.25998,0.25997 0.35661,27.25219 0.21475,59.9827 l -0.25793,59.51002 z m -72.70741,-71.98148 -11.36437,-11.42694 3.5,-2.97104 c 1.925,-1.63407 9.87342,-7.25188 17.66316,-12.48402 28.39041,-19.06902 62.37727,-32.36577 96.58684,-37.7879 l 8.75,-1.38685 v 16.36151 c 0,8.99882 -0.28096,16.3615 -0.62436,16.3615 -0.34339,0 -6.2327,1.13556 -13.08735,2.52347 -29.54994,5.98319 -59.51472,19.36989 -83.42392,37.26946 l -6.63564,4.96775 z"
         id="path212" />
      <path
         style="fill:#dc5966"
         d="m 535.40219,357.83352 c 7e-5,-47.3 0.12233,-66.50372 0.27171,-42.67493 0.14937,23.82879 0.14931,62.52879 -1.3e-4,86 -0.14943,23.47121 -0.27164,3.97493 -0.27158,-43.32507 z m -0.006,-258.499996 c 0,-36.025 0.12502,-50.7625 0.27781,-32.75 0.15279,18.0125 0.15279,47.487496 0,65.499996 -0.15279,18.0125 -0.27781,3.275 -0.27781,-32.749996 z"
         id="path210" />
      <path
         style="fill:#6bbd6d"
         d="m 808.90625,866.58352 -10.48213,-10.75 10.75,10.48213 c 9.98483,9.73603 11.20434,11.01787 10.48213,11.01787 -0.14732,0 -4.98482,-4.8375 -10.75,-10.75 z"
         id="path208" />
      <path
         style="fill:#a54496"
         d="m 577.92412,484.07871 c 0,-0.14014 17.46627,-17.71677 38.81394,-39.05917 l 38.81393,-38.80437 4.86066,7.30918 c 12.51459,18.81872 22.94036,44.77976 26.93049,67.05917 l 0.67161,3.75 h -55.04532 c -30.27492,0 -55.04531,-0.11466 -55.04531,-0.25481 z m 136.58613,-1.99519 c -3.40827,-16.96684 -6.3185,-28.67666 -9.21076,-37.0611 -4.87574,-14.13437 -14.79341,-34.13949 -23.34962,-47.09896 l -7.20313,-10.91005 49.39452,-49.39452 49.39452,-49.39452 6.89056,8.79557 c 32.15349,41.04287 54.79211,87.83963 66.07108,136.5769 2.99749,12.95237 5.90478,29.35484 6.86598,38.73668 0.36626,3.575 0.90302,7.7375 1.19278,9.25 l 0.52685,2.75 h -70.0604 -70.06041 z m 175.96743,-4.5 C 882.84807,401.78556 854.39864,331.33913 808.13647,273.69038 l -8.94218,-11.14314 22.71199,-22.6959 22.712,-22.69589 8.48589,10.33904 c 56.54598,68.89444 90.49768,149.17486 100.33897,237.25628 0.80395,7.19551 1.46606,14.54525 1.47135,16.33275 l 0.01,3.25 h -31.8835 -31.88351 l -0.67943,-6.75 z"
         id="path206" />
      <path
         style="fill:#328eb8"
         d="m 730.91912,706.58352 -37.495,-37.75 37.75,37.495 c 35.08554,34.84854 38.19964,38.005 37.495,38.005 -0.14025,0 -17.12775,-16.9875 -37.75,-37.75 z"
         id="path204" />
      <path
         style="fill:#318db6"
         d="m 731.53901,706.44844 c -26.72938,-26.7367 -36.64332,-37.26061 -36.03299,-38.25 0.46309,-0.75071 3.37594,-4.73992 6.47301,-8.86492 21.7633,-28.98667 37.06308,-63.86605 43.86483,-100 1.08707,-5.775 2.11234,-11.85 2.27837,-13.5 l 0.30189,-3 53.26322,-0.25877 53.26322,-0.25877 -0.51171,3.75877 c -0.28145,2.06732 -1.21564,9.15877 -2.07598,15.75877 -7.18099,55.088 -30.33898,112.34473 -63.65996,157.39544 -9.02148,12.19725 -18.70267,24.10456 -19.59809,24.10456 -0.37996,0 -17.28457,-16.59829 -37.56581,-36.88508 z"
         id="path202" />
      <path
         style="fill:#9d9438"
         d="m 57.924123,482.94033 c 0,-3.46082 3.095374,-30.22104 4.51911,-39.06873 12.658434,-78.66486 44.520807,-150.44853 94.188527,-212.2001 l 7.62893,-9.48499 22.33171,22.31517 c 12.28245,12.27334 22.33172,22.65717 22.33172,23.07517 0,0.418 -3.43019,5.14675 -7.62265,10.50833 -40.81091,52.19163 -68.78561,119.62598 -76.84906,185.24834 -0.84477,6.875 -1.7868,14.4125 -2.0934,16.75 l -0.55744,4.25 H 89.86285 c -26.635054,0 -31.938727,-0.23135 -31.938727,-1.39319 z m 101.413607,-6.35681 c 3.35828,-37.74888 16.20643,-81.54304 34.83839,-118.75 10.8278,-21.62252 19.74902,-35.98294 34.63682,-55.75466 l 6.59212,-8.75466 37.62704,37.61727 37.62704,37.61727 -5.30847,7.70628 c -19.81693,28.76821 -33.20057,62.10188 -39.07387,97.3185 l -1.79284,10.75 h -52.91785 -52.91785 z"
         id="path200" />
      <path
         style="fill:#59b45a"
         d="m 280.92412,780.74519 c 0,-0.50692 16.9875,-17.79442 37.75,-38.41667 l 37.75,-37.495 -37.5,37.96086 c -20.625,20.87848 -37.6125,38.16598 -37.75,38.41667 -0.1375,0.25069 -0.25,0.0411 -0.25,-0.46586 z"
         id="path198" />
      <path
         style="fill:#d63b49"
         d="m 589.92412,388.83352 c 29.97122,-29.975 54.71812,-54.5 54.99312,-54.5 0.275,0 -24.0219,24.525 -53.99312,54.5 -29.97122,29.975 -54.71812,54.5 -54.99312,54.5 -0.275,0 24.0219,-24.525 53.99312,-54.5 z"
         id="path196" />
      <path
         style="fill:#d63846"
         d="m 649.92412,328.83352 c 2.98742,-3.025 5.65668,-5.5 5.93168,-5.5 0.275,0 -1.94426,2.475 -4.93168,5.5 -2.98742,3.025 -5.65668,5.5 -5.93168,5.5 -0.275,0 1.94426,-2.475 4.93168,-5.5 z m 128.5,-128.5 c 25.29552,-25.3 46.21685,-46 46.49185,-46 0.275,0 -20.19633,20.7 -45.49185,46 -25.29552,25.3 -46.21685,46 -46.49185,46 -0.275,0 20.19633,-20.7 45.49185,-46 z"
         id="path194" />
      <path
         style="fill:#4bae4b"
         d="M 535.92412,978.42736 V 963.5212 l 4.75,-0.57008 c 2.6125,-0.31354 7.9,-0.8441 11.75,-1.17902 21.67197,-1.88528 56.60606,-8.62815 79.58853,-15.36193 55.79493,-16.34771 105.13046,-41.53534 150.77553,-76.97655 6.80024,-5.28005 13.24579,-10.23943 14.32345,-11.02084 1.8199,-1.3196 2.7114,-0.66872 12.52348,9.14336 l 10.5641,10.5641 -13.33199,10.60891 c -73.95937,58.85311 -157.93007,93.18293 -252.28014,103.13994 -7.63212,0.80544 -14.95351,1.46443 -16.26977,1.46443 h -2.39319 z M 459.74054,859.80664 c -36.83965,-5.02476 -75.92672,-17.0651 -109.26573,-33.65809 -14.95278,-7.44208 -38.51695,-22.10564 -53.01542,-32.99056 -7.92914,-5.95291 -14.72685,-11.32543 -15.10601,-11.93893 -0.40698,-0.6585 14.56945,-16.37838 36.55796,-38.37276 l 37.24736,-37.25729 7.53275,5.40451 c 31.73689,22.77017 68.56362,37.91128 105.48267,43.36861 l 8.75,1.29342 v 52.83898 52.83899 l -4.25,-0.10304 c -2.3375,-0.0567 -8.60761,-0.6974 -13.93358,-1.42384 z m 76.18358,-185.59103 v -80.37557 l 57.5,57.49348 c 31.625,31.62141 57.5,57.55857 57.5,57.63813 0,0.0796 -4.8375,3.298 -10.75,7.1521 -19.90808,12.97718 -39.61999,22.37239 -60.3721,28.77489 -11.57582,3.5714 -30.31198,7.94459 -38.6279,9.01608 l -5.25,0.67646 z"
         id="path192" />
      <path
         style="fill:#d42c39"
         d="m 535.92412,358.08039 v -84.74687 l 2.75,0.003 c 4.43735,0.005 22.90978,3.82859 34.12073,7.06284 15.80901,4.56075 28.26438,9.47389 43.31566,17.08627 12.53776,6.34114 36.07514,21.0482 38.64877,24.14924 0.82716,0.99667 -12.73621,15.10448 -58.88021,61.24367 l -59.95495,59.94873 z m 188,-118.98695 c -23.44327,-19.23551 -64.46024,-42.38087 -95.22864,-53.73632 -24.65262,-9.09834 -55.85123,-16.58801 -80.27136,-19.27027 l -12,-1.31806 -0.25724,-65.217626 -0.25724,-65.21764 4.25724,0.0096 c 11.06131,0.02501 43.50075,4.498362 64.86729,8.945107 67.26142,13.998285 131.81681,42.957945 186.88995,83.839179 11.47651,8.51911 31.54676,24.66373 32.42266,26.08097 0.25431,0.41148 -20.32425,21.47318 -45.73014,46.80378 l -46.19252,46.05564 z"
         id="path190" />
      <path
         style="fill:#246296"
         d="m 781.42412,757.33352 c -6.58281,-6.6 -11.74374,-12 -11.46874,-12 0.275,0 5.88593,5.4 12.46874,12 6.58281,6.6 11.74374,12 11.46874,12 -0.275,0 -5.88593,-5.4 -12.46874,-12 z"
         id="path188" />
      <path
         style="fill:#225f95"
         d="m 781.71428,756.58352 -11.67857,-11.75 6.9728,-8.5 c 41.93587,-51.12075 69.43707,-114.81498 76.85491,-178 0.61341,-5.225 1.3484,-10.9625 1.63331,-12.75 l 0.51802,-3.25 h 17.08389 17.0839 l -0.68003,7.25 c -6.4083,68.32028 -31.63883,134.81939 -72.27349,190.48839 -9.21206,12.6204 -22.00784,28.26161 -23.12031,28.26161 -0.39372,0 -5.97121,-5.2875 -12.39443,-11.75 z"
         id="path186" />
      <path
         style="fill:#29624e"
         d="m 368.13511,692.85717 c 6.44105,-6.56425 11.84105,-11.72994 12,-11.47932 0.15896,0.25062 -5.11099,5.62136 -11.71099,11.93499 l -12,11.47932 z m 69.78901,-70.02365 c 21.71978,-21.725 39.71551,-39.5 39.99051,-39.5 0.275,0 -17.27073,17.775 -38.99051,39.5 -21.71978,21.725 -39.71551,39.5 -39.99051,39.5 -0.275,0 17.27073,-17.775 38.99051,-39.5 z"
         id="path184" />
      <path
         style="fill:#245d49"
         d="m 231.92412,828.83352 c 12.36583,-12.375 22.70833,-22.5 22.98333,-22.5 0.275,0 -9.6175,10.125 -21.98333,22.5 -12.36583,12.375 -22.70833,22.5 -22.98333,22.5 -0.275,0 9.6175,-10.125 21.98333,-22.5 z"
         id="path182" />
      <path
         style="fill:#2a3855"
         d="m 156.90625,822.08352 c 5.76518,-5.9125 10.60268,-10.75 10.75,-10.75 0.72221,0 -0.4973,1.28184 -10.48213,11.01787 l -10.75,10.48213 z m 107.51787,-107.75 c 13.74175,-13.75 25.21,-25 25.485,-25 0.275,0 -10.74325,11.25 -24.485,25 -13.74175,13.75 -25.21,25 -25.485,25 -0.275,0 10.74325,-11.25 24.485,-25 z"
         id="path180" />
      <path
         style="fill:#283654"
         d="m 313.92412,664.83352 c 13.46658,-13.475 24.70969,-24.5 24.98469,-24.5 0.275,0 -10.51811,11.025 -23.98469,24.5 -13.46658,13.475 -24.70969,24.5 -24.98469,24.5 -0.275,0 10.51811,-11.025 23.98469,-24.5 z m 49,-49 c 2.98742,-3.025 5.65668,-5.5 5.93168,-5.5 0.275,0 -1.94426,2.475 -4.93168,5.5 -2.98742,3.025 -5.65668,5.5 -5.93168,5.5 -0.275,0 1.94426,-2.475 4.93168,-5.5 z"
         id="path178" />
      <path
         style="fill:#19543e"
         d="m 463.92412,961.21158 c -90.92778,-9.1589 -175.19619,-44.31977 -244.75,-102.12155 -4.5375,-3.77084 -8.25,-7.17491 -8.25,-7.56462 0,-0.38971 10.0125,-10.69061 22.25,-22.89089 l 22.25,-22.18232 8,6.48089 c 55.3939,44.87524 123.59293,74.14526 193,82.83274 7.15,0.89495 14.9125,1.86636 17.25,2.1587 l 4.25,0.53154 v 31.93872 31.93873 l -2.75,-0.13288 c -1.5125,-0.0731 -6.575,-0.51816 -11.25,-0.98906 z m -1,-208.86307 c -23.15609,-4.37928 -40.47224,-10.18542 -62.5,-20.95637 -14.37324,-7.02811 -33.54356,-18.60467 -40.65801,-24.55253 l -2.65802,-2.22217 11.17366,-11.14196 c 6.14552,-6.12808 11.42873,-11.14196 11.74048,-11.14196 0.31175,0 4.97207,2.94541 10.35628,6.54535 21.05957,14.08067 49.16274,25.73404 73.54561,30.49672 6.325,1.23545 12.0625,2.39228 12.75,2.57072 0.93453,0.24256 1.25,4.37042 1.25,16.35583 v 16.03138 l -2.75,-0.0942 c -1.5125,-0.0518 -7.025,-0.90267 -12.25,-1.89083 z m 3.5,-59.47339 c -19.30776,-4.47689 -36.87693,-11.44637 -52.78566,-20.93945 -5.3821,-3.21162 -10.7821,-6.66387 -11.99999,-7.67167 l -2.21435,-1.83236 39.25,-39.29747 39.25,-39.29747 v 55.74841 c 0,30.66163 -0.3375,55.71698 -0.75,55.67856 -0.4125,-0.0384 -5.25,-1.11326 -10.75,-2.38855 z"
         id="path176" />
      <path
         style="fill:#253351"
         d="m 402.42412,576.33352 c 18.69393,-18.7 34.21397,-34 34.48897,-34 0.275,0 -14.79504,15.3 -33.48897,34 -18.69393,18.7 -34.21397,34 -34.48897,34 -0.275,0 14.79504,-15.3 33.48897,-34 z"
         id="path174" />
      <path
         style="fill:#0d1b3d"
         d="M 138.78038,822.99557 C 82.90048,756.01597 46.826942,678.05516 32.485936,593.2759 30.054337,578.90109 26.924123,552.12754 26.924123,545.70423 v -3.37071 h 14.858388 14.858388 l 1.206704,12.25 c 6.860357,69.64374 27.60921,133.19713 62.290877,190.79596 10.60309,17.60946 26.87318,40.62626 39.26216,55.54297 l 8.37929,10.08892 -10.67791,10.57312 -10.6779,10.57313 z m 92.60254,-94.41205 c -35.50585,-45.58556 -59.46946,-99.63557 -68.9274,-155.46601 -1.35593,-8.00412 -2.7699,-18.20493 -3.14214,-22.66847 l -0.67681,-8.11552 h 69.67516 c 54.90086,0 69.74378,0.26506 69.99878,1.25 0.17799,0.6875 1.29204,6.30036 2.47567,12.47303 4.59794,23.97835 16.59828,52.98655 30.48653,73.69451 3.65827,5.45465 6.65141,10.18137 6.65141,10.50383 0,0.85306 -97.37297,98.07863 -98.22733,98.07863 -0.39586,0 -4.13711,-4.3875 -8.31387,-9.75 z m 121.16027,-115 c -13.1347,-20.42562 -22.52353,-44.10223 -26.96504,-68 l -0.60403,-3.25 h 55.72019 55.72019 l -38.99038,39 c -21.44471,21.45 -39.33913,39 -39.76536,39 -0.42624,0 -2.72825,-3.0375 -5.11557,-6.75 z"
         id="path172" />
    </g>
  </g>
</svg>
